# Blender v2.69 (sub 0) OBJ File: ''
# www.blender.org
o uvtest:pCube2.007
v -8.330915 0.063663 8.486807
v 6.314437 0.063663 8.486807
v -8.330915 8.029261 8.486809
v 6.314437 8.029262 8.486809
v -7.766693 8.029263 -4.922071
v 5.750218 8.029266 -4.922071
v -7.766693 8.029268 -17.521639
v 5.750218 8.029270 -17.521639
v -8.330915 8.029268 -18.048342
v 5.750218 8.029270 -18.575047
v -8.330915 0.063671 -18.048346
v 5.750218 0.063671 -18.575050
v 19.183275 8.029266 -4.395369
v 19.183275 0.063668 -4.395372
v 19.183275 8.029270 -18.048342
v 19.183275 0.063672 -18.048346
v -8.895136 0.063667 -4.922075
v -8.895136 8.029263 -4.922071
v -7.766693 8.029261 7.960106
v 5.750218 8.029262 7.960106
v 6.314437 0.063667 -4.395372
v 6.314437 8.029266 -4.395369
v 18.619055 8.029270 -17.521639
v 18.619055 8.029266 -4.922071
v -7.766692 0.063663 7.960104
v -7.766693 8.029261 7.960106
v 5.750217 0.063663 7.960104
v 5.750218 8.029262 7.960106
v -7.766693 8.029266 -13.590256
v -7.766693 8.029268 -17.521639
v 5.750218 8.029268 -13.590256
v 5.750218 8.029270 -17.521639
v -7.766693 0.063671 -17.521643
v 5.750218 0.063671 -17.521643
v -7.766693 0.063669 -13.590258
v 5.750218 0.063669 -13.590258
v 18.619055 8.029268 -13.590256
v 18.619055 8.029270 -17.521639
v 18.619055 0.063670 -13.590258
v 18.619055 0.063672 -17.521643
v -7.766692 0.063667 -4.922075
v 5.750217 0.063667 -4.922075
v -7.766693 8.029263 -4.922071
v 5.750218 8.029266 -4.922071
v 6.223275 0.063667 -4.922075
v 6.223277 8.029266 -4.922071
v 13.988313 0.063668 -4.922075
v 13.988313 8.029266 -4.922071
v 13.988313 0.063670 -13.590258
v 13.988313 0.063672 -17.521643
v 13.988313 8.029270 -17.521639
v 13.988313 8.029268 -13.590256
v 18.619055 0.063668 -4.922075
v 18.619055 8.029266 -4.922071
v 18.662882 0.063670 -13.387350
v 18.662882 8.029268 -13.387348
v 14.009898 0.063673 -13.387350
v 14.009898 8.029272 -13.387348
v 5.750218 6.863718 7.960106
v -7.766693 6.863717 7.960106
v 5.750218 6.863726 -17.521639
v -7.766693 6.863725 -17.521639
v 18.619055 6.863722 -4.922073
v 18.619055 6.863726 -17.521639
v -7.766693 6.863721 -4.922073
v 5.750218 6.863722 -4.922073
v 13.966068 8.029272 -13.590256
v 13.966068 0.063673 -13.590258
v 18.619055 8.090193 -13.590256
v 13.966068 8.090196 -13.590256
v 13.988313 0.063672 -15.981132
v 13.988313 8.029270 -15.981130
v 13.755134 0.063672 -15.981132
v 13.755134 8.029270 -15.981130
v 13.755134 0.063672 -17.532951
v 13.755134 8.029270 -17.532948
v 5.750217 0.063669 -9.251612
v 5.750218 8.029268 -9.251610
v 6.223275 0.063669 -9.251612
v 6.223277 8.029268 -9.251610
v -8.330915 0.063663 8.486807
v 6.314437 0.063663 8.486807
v -8.330915 8.029261 8.486809
v 6.314437 8.029262 8.486809
v -7.766693 8.029263 -4.922071
v 5.750218 8.029266 -4.922071
v -7.766693 8.029268 -17.521639
v 5.750218 8.029270 -17.521639
v -8.330915 8.029268 -18.048342
v 5.750218 8.029270 -18.575047
v -8.330915 0.063671 -18.048346
v 5.750218 0.063671 -18.575050
v 19.183275 8.029266 -4.395369
v 19.183275 0.063668 -4.395372
v 19.183275 8.029270 -18.048342
v 19.183275 0.063672 -18.048346
v -8.895136 0.063667 -4.922075
v -8.895136 8.029263 -4.922071
v -7.766693 8.029261 7.960106
v 5.750218 8.029262 7.960106
v 6.314437 0.063667 -4.395372
v 6.314437 8.029266 -4.395369
v 18.619055 8.029270 -17.521639
v 18.619055 8.029266 -4.922071
v -7.766692 0.063663 7.960104
v -7.766693 8.029261 7.960106
v 5.750217 0.063663 7.960104
v 5.750218 8.029262 7.960106
v -7.766693 8.029266 -13.590256
v -7.766693 8.029268 -17.521639
v 5.750218 8.029268 -13.590256
v 5.750218 8.029270 -17.521639
v -7.766693 0.063671 -17.521643
v 5.750218 0.063671 -17.521643
v -7.766693 0.063669 -13.590258
v 5.750218 0.063669 -13.590258
v 18.619055 8.029268 -13.590256
v 18.619055 8.029270 -17.521639
v 18.619055 0.063670 -13.590258
v 18.619055 0.063672 -17.521643
v -7.766692 0.063667 -4.922075
v 5.750217 0.063667 -4.922075
v -7.766693 8.029263 -4.922071
v 5.750218 8.029266 -4.922071
v 6.223275 0.063667 -4.922075
v 6.223277 8.029266 -4.922071
v 13.988313 0.063668 -4.922075
v 13.988313 8.029266 -4.922071
v 13.988313 0.063670 -13.590258
v 13.988313 0.063672 -17.521643
v 13.988313 8.029270 -17.521639
v 13.988313 8.029268 -13.590256
v 18.619055 0.063668 -4.922075
v 18.619055 8.029266 -4.922071
v 18.662882 0.063670 -13.387350
v 18.662882 8.029268 -13.387348
v 14.009898 0.063673 -13.387350
v 14.009898 8.029272 -13.387348
v -7.766693 6.863717 7.960106
v 5.750218 6.863718 7.960106
v 5.750218 6.863726 -17.521639
v -7.766693 6.863725 -17.521639
v 18.619055 6.863722 -4.922073
v 18.619055 6.863726 -17.521639
v -7.766693 6.863721 -4.922073
v 5.750218 6.863722 -4.922073
v 13.966068 8.029272 -13.590256
v 13.966068 0.063673 -13.590258
v 18.619055 8.090193 -13.590256
v 13.966068 8.090196 -13.590256
v 13.988313 0.063672 -15.981132
v 13.988313 8.029270 -15.981130
v 13.755134 0.063672 -15.981132
v 13.755134 8.029270 -15.981130
v 13.755134 0.063672 -17.532951
v 13.755134 8.029270 -17.532948
v 5.750217 0.063669 -9.251612
v 5.750218 8.029268 -9.251610
v 6.223275 0.063669 -9.251612
v 6.223277 8.029268 -9.251610
vt 7.173574 -0.589408
vt 7.173574 -2.952339
vt 8.142229 -0.589408
vt 8.142229 -2.952339
vt 2.267631 1.988904
vt 5.678564 1.988904
vt 2.267631 4.166548
vt 5.678564 4.166548
vt 0.488419 -1.383362
vt 0.488419 -3.655266
vt 1.457079 -1.383362
vt 1.457079 -3.655266
vt 7.070143 -0.725219
vt 6.101488 -0.725219
vt 7.070143 -3.084952
vt 6.101488 -3.084952
vt 8.630323 -1.124288
vt 8.630323 1.144377
vt 7.661669 -1.124288
vt 7.661669 1.144377
vt 7.661669 3.461936
vt 8.630323 3.461936
vt 2.267631 -0.237580
vt 5.678564 -0.237580
vt 3.168613 -0.858469
vt 3.168613 -3.084952
vt 4.137269 -0.858469
vt 4.137269 -3.084952
vt 1.223455 1.215245
vt 0.254749 1.215245
vt 1.223455 -0.861067
vt 0.254749 -0.861067
vt 1.457079 -5.822604
vt 0.488419 -5.822604
vt 8.925963 4.166548
vt 8.925963 1.988904
vt 1.993052 -0.904074
vt 1.024354 -0.904074
vt 1.993052 -3.084952
vt 1.024354 -3.084952
vt 8.745564 8.523706
vt 8.745564 9.203194
vt 5.334630 8.523706
vt 5.334630 9.203194
vt 7.001743 2.904022
vt 6.033089 2.904022
vt 7.001743 0.723186
vt 6.033089 0.723186
vt -4.831347 -0.970412
vt -4.165500 -0.972021
vt -4.826161 1.156105
vt -4.160314 1.154497
vt 7.093041 0.000514
vt 7.093041 -0.678977
vt 8.061739 0.000514
vt 8.061739 -0.678977
vt 8.004234 -3.101963
vt 8.972889 -3.101963
vt 8.004234 -2.422472
vt 8.972889 -2.422472
vt -2.697400 -0.975564
vt -0.515583 -0.980834
vt -2.692208 1.150953
vt -0.510392 1.145684
vt 8.972889 -0.924319
vt 8.972889 1.302215
vt 8.004234 -0.924319
vt 8.004234 1.302215
vt 8.745564 4.799021
vt 8.745564 7.025500
vt 5.334630 4.799021
vt 5.334630 7.025500
vt 3.065138 -0.858469
vt 2.096484 -0.858469
vt 3.065138 -3.084952
vt 2.096484 -3.084952
vt 2.311132 1.184556
vt 1.342432 1.184556
vt 2.311132 -0.068255
vt 1.342432 -0.068255
vt -4.157154 2.450539
vt -4.822997 2.452147
vt 6.033089 -0.606011
vt 7.001743 -0.606011
vt 3.255803 9.203194
vt 3.255803 8.523706
vt 6.008636 0.064951
vt 6.008636 -0.682212
vt 6.977346 0.064951
vt 6.977346 -0.682212
vt 2.087220 8.523706
vt 2.087220 9.203194
vt 2.311132 -0.815418
vt 1.342432 -0.815418
vt -4.821223 3.180664
vt -4.155375 3.179056
vt 2.426883 0.682735
vt 2.426883 -0.815418
vt 3.395537 0.682735
vt 3.395537 -0.815418
vt 3.255803 7.025500
vt 2.087220 7.025500
vt 5.215237 7.025500
vt -2.692025 1.225377
vt -2.689049 2.446990
vt -2.687269 3.175512
vt 3.839847 -0.773232
vt 4.808546 -0.773232
vt 3.839847 -0.022519
vt 4.808546 -0.022519
vt 8.000494 -2.861313
vt 8.000494 -0.680434
vt 5.820986 -0.328606
vt 2.125253 -0.328606
vt 5.678564 4.348644
vt 2.125253 4.257617
vt 0.630156 -3.655266
vt 0.630156 -1.474431
vt 6.928419 -0.816239
vt 6.928419 -2.993927
vt 9.068340 4.257617
vt 9.068340 1.897884
vt 5.067662 -0.816239
vt 4.240700 -0.816239
vt 5.067662 -2.993927
vt 4.240700 -3.084952
vt 1.982886 1.988904
vt 7.803405 1.144377
vt 7.803405 3.370910
vt 5.171094 -3.084952
vt 5.998013 -2.993927
vt 5.171094 -0.858469
vt 5.998013 -0.767399
vt 5.820986 1.897884
vt 0.630156 -5.731578
vt 8.232298 -0.816418
vt 8.232298 -0.197085
vt 8.177437 -0.816418
vt 8.177437 -0.197085
vt 3.566097 -0.057627
vt 3.511277 -0.064700
vt 3.566097 -0.808351
vt 3.511277 -0.815418
vt 8.341743 -0.197085
vt 8.341743 -0.816418
vt 8.396606 -0.197085
vt 8.396606 -0.816418
vt 3.675541 -0.057627
vt 3.675541 -0.808351
vt 3.730403 -0.064700
vt 3.730403 -0.815418
vt 5.900334 -0.724392
vt 5.900334 0.026326
vt 4.924242 -0.724392
vt 4.924242 0.026326
vt 8.922504 -0.816418
vt 8.922504 -0.197085
vt 8.506051 -0.816418
vt 8.506051 -0.197085
vt 9.090685 -0.816418
vt 9.090685 -0.197085
vt 9.031820 -0.816418
vt 9.031820 -0.197085
vt 9.615624 -0.069304
vt 9.615624 0.550034
vt 9.196125 -0.069304
vt 9.196125 0.550034
vt 2.311132 1.260899
vt 1.342432 1.260899
vt 1.456381 -0.677413
vt 2.613264 1.884871
vt 2.613159 -0.664935
vt 1.457532 -0.673974
vt 1.426286 1.854436
vn 0.000000 -0.000000 1.000000
vn -0.000000 1.000000 0.000001
vn -0.000000 1.000000 0.000000
vn -0.037379 0.000000 -0.999301
vn 1.000000 -0.000001 0.000000
vn 1.000000 0.000001 0.000000
vn -0.999077 0.000000 -0.042944
vn -0.999116 0.000000 0.042041
vn 1.000000 0.000000 0.000000
vn 0.039180 0.000000 -0.999232
vn 0.039179 0.000000 -0.999232
vn 0.000000 0.000000 -1.000000
vn 0.000000 -1.000000 -0.000000
vn 0.000000 -1.000000 -0.000001
vn -1.000000 0.000000 0.000000
vn -0.971966 0.235123 0.000001
vn 0.577349 0.577349 -0.577349
vn 0.577349 -0.577349 -0.577349
vn -0.000000 0.458687 -0.888598
vn 0.000000 -0.707107 -0.707107
vn 0.000000 -0.077224 -0.997014
vn -0.000000 1.000000 0.000002
vn 0.000000 -0.153086 0.988213
vn 0.037258 -0.080244 0.996079
vn -0.996575 -0.082689 -0.000000
vn 0.986509 -0.163707 -0.000000
vn 0.995384 -0.085904 0.042786
vn 0.995428 -0.085838 -0.041886
vn -0.039052 -0.080387 0.995998
vn 0.977459 0.000000 -0.211126
vn 0.977458 0.000000 -0.211127
vn 0.000001 1.000000 0.000000
vn -0.977456 0.000000 0.211139
vn -0.000001 -1.000000 -0.000000
vn -0.577349 -0.577349 -0.577349
vn -0.577349 0.577349 -0.577349
s off
f 1/1/1 2/2/1 3/3/1
f 3/3/1 2/2/1 4/4/1
f 5/5/2 6/6/2 7/7/2
f 7/7/3 6/6/3 8/8/3
f 9/9/4 10/10/4 11/11/4
f 11/11/4 10/10/4 12/12/4
f 13/13/5 14/14/5 15/15/5
f 15/15/6 14/14/6 16/16/6
f 11/17/7 17/18/7 9/19/7
f 9/19/7 17/18/7 18/20/7
f 18/20/8 17/18/8 3/21/8
f 17/18/8 1/22/8 3/21/8
f 19/23/3 20/24/3 5/5/3
f 5/5/3 20/24/3 6/6/3
f 2/25/9 21/26/9 4/27/9
f 4/27/9 21/26/9 22/28/9
f 22/29/1 21/30/1 13/31/1
f 13/31/1 21/30/1 14/32/1
f 12/12/10 10/10/10 16/33/10
f 16/33/11 10/10/11 15/34/11
f 8/8/3 6/6/3 23/35/3
f 23/35/3 6/6/3 24/36/3
f 25/37/12 26/38/12 27/39/12
f 27/39/12 26/38/12 28/40/12
f 29/41/13 30/42/13 31/43/13
f 31/43/14 30/42/14 32/44/14
f 30/45/1 33/46/1 32/47/1
f 32/47/1 33/46/1 34/48/1
f 33/49/3 35/50/3 34/51/3
f 34/51/3 35/50/3 36/52/3
f 37/53/15 38/54/15 39/55/15
f 39/55/15 38/54/15 40/56/15
f 33/57/9 30/58/9 35/59/9
f 35/59/9 30/58/9 29/60/9
f 41/61/3 25/62/3 42/63/3
f 42/63/3 25/62/3 27/64/3
f 43/65/9 26/66/9 41/67/9
f 41/67/9 26/66/9 25/68/9
f 26/69/13 43/70/13 28/71/13
f 28/71/13 43/70/13 44/72/13
f 27/73/15 28/74/15 42/75/15
s 1
f 42/75/15 28/74/15 44/76/16
f 45/77/17 46/78/18 47/79/19
f 47/79/19 46/78/18 48/80/20
s off
f 36/52/3 49/81/3 34/51/3
f 34/51/3 49/81/3 50/82/3
f 34/48/1 50/83/1 32/47/1
f 32/47/1 50/83/1 51/84/1
f 32/44/13 51/85/13 31/43/13
f 31/43/13 51/85/13 52/86/13
f 50/87/1 40/88/1 51/89/1
f 51/89/1 40/88/1 38/90/1
f 52/86/14 51/85/14 37/91/14
f 37/91/13 51/85/13 38/92/13
f 47/79/12 48/80/12 53/93/12
f 53/93/12 48/80/12 54/94/12
f 50/82/3 49/81/3 40/95/3
f 40/95/3 49/81/3 39/96/3
f 54/97/15 37/98/15 53/99/15
f 53/99/15 37/98/15 39/100/15
f 48/101/13 52/86/13 54/102/13
f 54/102/13 52/86/13 37/91/13
f 31/43/13 52/86/13 44/72/13
s 1
f 44/72/16 52/86/13 46/103/18
f 52/86/13 48/101/20 46/103/18
s off
f 43/70/14 29/41/14 44/72/14
f 44/72/13 29/41/13 31/43/13
f 35/59/9 29/60/9 41/67/9
f 41/67/9 29/60/9 43/65/9
f 36/52/3 35/50/3 42/63/3
f 42/63/3 35/50/3 41/61/3
s 1
f 42/63/15 45/104/17 36/52/3
f 45/104/17 47/105/19 36/52/3
s off
f 36/52/3 47/105/3 49/81/3
f 39/96/3 49/81/3 53/106/3
f 53/106/3 49/81/3 47/105/3
f 55/107/1 56/108/1 57/109/1
f 57/109/1 56/108/1 58/110/1
f 59/111/21 1/1/21 60/112/21
f 1/1/21 59/111/21 2/2/21
f 20/24/3 19/23/3 4/113/3
f 4/113/3 19/23/3 3/114/3
f 8/8/3 10/115/3 7/7/3
f 7/7/22 10/115/22 9/116/22
f 61/117/23 62/118/23 12/12/23
f 12/12/24 62/118/24 11/11/24
f 63/119/25 64/120/25 14/14/25
f 14/14/25 64/120/25 16/16/25
f 23/35/3 24/36/3 15/121/3
f 15/121/3 24/36/3 13/122/3
f 65/123/26 17/124/26 62/125/26
f 62/125/27 17/124/27 11/126/27
f 5/5/2 7/7/2 18/127/2
f 18/127/3 7/7/3 9/116/3
f 65/128/26 60/129/26 17/18/26
f 60/129/28 1/22/28 17/18/28
f 5/5/3 18/127/3 19/23/3
f 19/23/3 18/127/3 3/114/3
f 66/130/25 21/131/25 59/132/25
f 59/132/25 21/131/25 2/133/25
f 6/6/3 20/24/3 22/134/3
f 22/134/3 20/24/3 4/113/3
f 66/130/21 63/130/21 21/131/21
f 21/131/21 63/130/21 14/131/21
f 6/6/3 22/134/3 24/36/3
f 24/36/3 22/134/3 13/122/3
f 8/8/3 23/35/3 10/115/3
f 10/115/2 23/35/2 15/121/2
f 61/117/23 12/12/23 64/135/23
f 64/135/29 12/12/29 16/33/29
f 39/136/30 37/137/30 55/138/30
f 55/138/31 37/137/31 56/139/31
f 67/140/32 58/141/32 37/142/32
f 37/142/32 58/141/32 56/143/32
f 67/144/33 68/145/33 58/146/33
f 58/146/33 68/145/33 57/147/33
f 68/148/34 39/149/34 57/150/34
f 57/150/34 39/149/34 55/151/34
f 39/152/12 68/153/12 69/154/12
f 69/154/12 68/153/12 70/155/12
f 50/156/9 51/157/9 71/158/9
f 71/158/9 51/157/9 72/159/9
f 71/160/1 72/161/1 73/162/1
f 73/162/1 72/161/1 74/163/1
f 73/164/15 74/165/15 75/166/15
f 75/166/15 74/165/15 76/167/15
s 1
f 77/168/35 78/169/36 79/77/18
f 79/77/18 78/169/36 80/78/17
f 42/168/15 44/169/16 77/168/35
f 77/168/35 44/169/16 78/169/36
f 44/169/16 46/78/18 78/169/36
f 78/169/36 46/78/18 80/78/17
f 46/78/18 45/77/17 80/78/17
f 80/78/17 45/77/17 79/77/18
f 45/77/17 42/168/15 79/77/18
f 79/77/18 42/168/15 77/168/35
s off
f 81/1/1 82/2/1 83/3/1
f 83/3/1 82/2/1 84/4/1
f 85/5/2 86/6/2 87/7/2
f 87/7/3 86/6/3 88/8/3
f 89/9/4 90/10/4 91/11/4
f 91/11/4 90/10/4 92/12/4
f 93/13/5 94/14/5 95/15/5
f 95/15/6 94/14/6 96/16/6
f 91/17/7 97/18/7 89/19/7
f 89/19/7 97/18/7 98/20/7
f 98/20/8 97/18/8 83/21/8
f 83/21/8 97/18/8 81/22/8
f 99/23/3 100/24/3 85/5/3
f 85/5/3 100/24/3 86/6/3
f 82/25/9 101/26/9 84/27/9
f 84/27/9 101/26/9 102/28/9
f 102/29/1 101/30/1 93/31/1
f 93/31/1 101/30/1 94/32/1
f 92/12/10 90/10/10 96/33/10
f 96/33/11 90/10/11 95/34/11
f 88/8/3 86/6/3 103/35/3
f 103/35/3 86/6/3 104/36/3
f 105/37/12 106/38/12 107/39/12
f 107/39/12 106/38/12 108/40/12
f 109/41/13 110/42/13 111/43/13
f 111/43/14 110/42/14 112/44/14
f 110/45/1 113/46/1 112/47/1
f 112/47/1 113/46/1 114/48/1
f 113/49/3 115/50/3 114/51/3
f 114/51/3 115/50/3 116/52/3
f 117/53/15 118/54/15 119/55/15
f 119/55/15 118/54/15 120/56/15
f 113/57/9 110/58/9 115/59/9
f 115/59/9 110/58/9 109/60/9
f 121/61/3 105/62/3 122/63/3
f 122/63/3 105/62/3 107/64/3
f 123/65/9 106/66/9 121/67/9
f 121/67/9 106/66/9 105/68/9
f 106/69/13 123/70/13 108/71/13
f 108/71/13 123/70/13 124/72/13
f 107/73/15 108/74/15 122/75/15
s 1
f 122/75/15 108/74/15 124/76/16
f 125/77/17 126/78/18 127/79/19
f 127/79/19 126/78/18 128/80/20
s off
f 116/52/3 129/81/3 114/51/3
f 114/51/3 129/81/3 130/82/3
f 114/48/1 130/83/1 112/47/1
f 112/47/1 130/83/1 131/84/1
f 112/44/13 131/85/13 111/43/13
f 111/43/13 131/85/13 132/86/13
f 130/87/1 120/88/1 131/89/1
f 131/89/1 120/88/1 118/90/1
f 132/86/14 131/85/14 117/91/14
f 117/91/13 131/85/13 118/92/13
f 127/79/12 128/80/12 133/93/12
f 133/93/12 128/80/12 134/94/12
f 130/82/3 129/81/3 120/95/3
f 120/95/3 129/81/3 119/96/3
f 134/97/15 117/98/15 133/99/15
f 133/99/15 117/98/15 119/100/15
f 128/101/13 132/86/13 134/102/13
f 134/102/13 132/86/13 117/91/13
f 111/43/13 132/86/13 124/72/13
s 1
f 124/72/16 132/86/13 126/103/18
f 132/86/13 128/101/20 126/103/18
s off
f 123/70/14 109/41/14 124/72/14
f 124/72/13 109/41/13 111/43/13
f 115/59/9 109/60/9 121/67/9
f 121/67/9 109/60/9 123/65/9
f 116/52/3 115/50/3 122/63/3
f 122/63/3 115/50/3 121/61/3
s 1
f 122/63/15 125/104/17 116/52/3
f 125/104/17 127/105/19 116/52/3
s off
f 116/52/3 127/105/3 129/81/3
f 119/96/3 129/81/3 133/106/3
f 133/106/3 129/81/3 127/105/3
f 135/107/1 136/108/1 137/109/1
f 137/109/1 136/108/1 138/110/1
f 139/112/21 140/111/21 81/1/21
f 81/1/21 140/111/21 82/2/21
f 100/24/3 99/23/3 84/113/3
f 84/113/3 99/23/3 83/114/3
f 88/8/3 90/115/3 87/7/3
f 87/7/22 90/115/22 89/116/22
f 141/117/23 142/118/23 92/12/23
f 92/12/24 142/118/24 91/11/24
f 143/119/25 144/120/25 94/14/25
f 94/14/25 144/120/25 96/16/25
f 103/35/3 104/36/3 95/121/3
f 95/121/3 104/36/3 93/122/3
f 145/123/26 97/124/26 142/125/26
f 142/125/27 97/124/27 91/126/27
f 85/5/2 87/7/2 98/127/2
f 98/127/3 87/7/3 89/116/3
f 145/128/26 139/129/26 97/18/26
f 97/18/28 139/129/28 81/22/28
f 85/5/3 98/127/3 99/23/3
f 99/23/3 98/127/3 83/114/3
f 146/130/25 101/131/25 140/132/25
f 140/132/25 101/131/25 82/133/25
f 86/6/3 100/24/3 102/134/3
f 102/134/3 100/24/3 84/113/3
f 146/130/21 143/130/21 101/131/21
f 101/131/21 143/130/21 94/131/21
f 86/6/3 102/134/3 104/36/3
f 104/36/3 102/134/3 93/122/3
f 88/8/3 103/35/3 90/115/3
f 90/115/2 103/35/2 95/121/2
f 141/117/23 92/12/23 144/135/23
f 144/135/29 92/12/29 96/33/29
f 119/136/30 117/137/30 135/138/30
f 135/138/31 117/137/31 136/139/31
f 147/140/32 138/141/32 117/142/32
f 117/142/32 138/141/32 136/143/32
f 147/144/33 148/145/33 138/146/33
f 138/146/33 148/145/33 137/147/33
f 148/148/34 119/149/34 137/150/34
f 137/150/34 119/149/34 135/151/34
f 119/152/12 148/153/12 149/154/12
f 149/154/12 148/153/12 150/155/12
f 130/156/9 131/157/9 151/158/9
f 151/158/9 131/157/9 152/159/9
f 151/160/1 152/161/1 153/162/1
f 153/162/1 152/161/1 154/163/1
f 153/164/15 154/165/15 155/166/15
f 155/166/15 154/165/15 156/167/15
s 1
f 157/168/35 158/169/36 159/77/18
f 159/77/18 158/169/36 160/78/17
f 122/170/15 124/171/16 157/172/35
f 157/173/35 124/171/16 158/174/36
f 124/169/16 126/78/18 158/169/36
f 158/169/36 126/78/18 160/78/17
f 126/78/18 125/77/17 160/78/17
f 160/78/17 125/77/17 159/77/18
f 125/77/17 122/168/15 159/77/18
f 159/77/18 122/168/15 157/168/35
