# Blender v2.69 (sub 0) OBJ File: ''
# www.blender.org
o uvtest:pCube2.006
v -8.330915 0.063664 8.486807
v 6.314437 0.063664 8.486807
v -8.330915 8.029262 8.486808
v 6.314437 8.029263 8.486808
v -7.766693 8.029263 -4.922073
v 5.750218 8.029265 -4.922073
v -7.766693 8.029265 -17.521641
v 5.750218 8.029267 -17.521641
v -8.330915 8.029265 -18.048344
v 5.750218 8.029267 -18.575048
v -8.330915 0.063668 -18.048346
v 5.750218 0.063668 -18.575050
v 19.183275 8.029265 -4.395370
v 19.183275 0.063667 -4.395372
v 19.183275 8.029267 -18.048344
v 19.183275 0.063669 -18.048346
v -8.895136 0.063666 -4.922075
v -8.895136 8.029263 -4.922073
v -7.766693 8.029262 7.960105
v 5.750218 8.029263 7.960105
v 6.314437 0.063666 -4.395372
v 6.314437 8.029265 -4.395370
v 18.619055 8.029267 -17.521641
v 18.619055 8.029265 -4.922073
v -7.766692 0.063664 7.960104
v -7.766693 8.029262 7.960105
v 5.750217 0.063664 7.960104
v 5.750218 8.029263 7.960105
v -7.766693 8.029264 -13.590257
v -7.766693 8.029265 -17.521641
v 5.750218 8.029266 -13.590257
v 5.750218 8.029267 -17.521641
v -7.766693 0.063668 -17.521643
v 5.750218 0.063668 -17.521643
v -7.766693 0.063667 -13.590258
v 5.750218 0.063667 -13.590258
v 18.619055 8.029266 -13.590257
v 18.619055 8.029267 -17.521641
v 18.619055 0.063668 -13.590258
v 18.619055 0.063669 -17.521643
v -7.766692 0.063666 -4.922075
v 5.750217 0.063666 -4.922075
v -7.766693 8.029263 -4.922073
v 5.750218 8.029265 -4.922073
v 6.223275 0.063666 -4.922075
v 6.223277 8.029265 -4.922073
v 13.988313 0.063667 -4.922075
v 13.988313 8.029265 -4.922073
v 13.988313 0.063668 -13.590258
v 13.988313 0.063669 -17.521643
v 13.988313 8.029267 -17.521641
v 13.988313 8.029266 -13.590257
v 18.619055 0.063667 -4.922075
v 18.619055 8.029265 -4.922073
v 18.662882 0.063668 -13.387350
v 18.662882 8.029266 -13.387349
v 14.009898 0.063671 -13.387350
v 14.009898 8.029270 -13.387349
v -7.766693 6.863718 7.960105
v 5.750218 6.863719 7.960105
v 5.750218 6.863723 -17.521641
v -7.766693 6.863722 -17.521641
v 18.619055 6.863721 -4.922074
v 18.619055 6.863723 -17.521641
v -7.766693 6.863720 -4.922074
v 5.750218 6.863721 -4.922074
v 13.966068 8.029270 -13.590257
v 13.966068 0.063671 -13.590258
v 18.619055 8.090191 -13.590257
v 13.966068 8.090194 -13.590257
v 13.988313 0.063669 -15.981132
v 13.988313 8.029267 -15.981131
v 13.755134 0.063669 -15.981132
v 13.755134 8.029267 -15.981131
v 13.755134 0.063669 -17.532951
v 13.755134 8.029267 -17.532949
v 5.750217 0.063667 -9.251612
v 5.750218 8.029266 -9.251611
v 6.223275 0.063667 -9.251612
v 6.223277 8.029266 -9.251611
v -8.330915 0.063664 8.486807
v 6.314437 0.063664 8.486807
v -8.330915 8.029262 8.486808
v 6.314437 8.029263 8.486808
v -7.766693 8.029263 -4.922073
v 5.750218 8.029265 -4.922073
v -7.766693 8.029265 -17.521641
v 5.750218 8.029267 -17.521641
v -8.330915 8.029265 -18.048344
v 5.750218 8.029267 -18.575048
v -8.330915 0.063668 -18.048346
v 5.750218 0.063668 -18.575050
v 19.183275 8.029265 -4.395370
v 19.183275 0.063667 -4.395372
v 19.183275 8.029267 -18.048344
v 19.183275 0.063669 -18.048346
v -8.895136 0.063666 -4.922075
v -8.895136 8.029263 -4.922073
v -7.766693 8.029262 7.960105
v 5.750218 8.029263 7.960105
v 6.314437 0.063666 -4.395372
v 6.314437 8.029265 -4.395370
v 18.619055 8.029267 -17.521641
v 18.619055 8.029265 -4.922073
v -7.766692 0.063664 7.960104
v -7.766693 8.029262 7.960105
v 5.750217 0.063664 7.960104
v 5.750218 8.029263 7.960105
v -7.766693 8.029264 -13.590257
v -7.766693 8.029265 -17.521641
v 5.750218 8.029266 -13.590257
v 5.750218 8.029267 -17.521641
v -7.766693 0.063668 -17.521643
v 5.750218 0.063668 -17.521643
v -7.766693 0.063667 -13.590258
v 5.750218 0.063667 -13.590258
v 18.619055 8.029266 -13.590257
v 18.619055 8.029267 -17.521641
v 18.619055 0.063668 -13.590258
v 18.619055 0.063669 -17.521643
v -7.766692 0.063666 -4.922075
v 5.750217 0.063666 -4.922075
v -7.766693 8.029263 -4.922073
v 5.750218 8.029265 -4.922073
v 6.223275 0.063666 -4.922075
v 6.223277 8.029265 -4.922073
v 13.988313 0.063667 -4.922075
v 13.988313 8.029265 -4.922073
v 13.988313 0.063668 -13.590258
v 13.988313 0.063669 -17.521643
v 13.988313 8.029267 -17.521641
v 13.988313 8.029266 -13.590257
v 18.619055 0.063667 -4.922075
v 18.619055 8.029265 -4.922073
v 18.662882 0.063668 -13.387350
v 18.662882 8.029266 -13.387349
v 14.009898 0.063671 -13.387350
v 14.009898 8.029270 -13.387349
v -7.766693 6.863718 7.960105
v 5.750218 6.863719 7.960105
v 5.750218 6.863723 -17.521641
v -7.766693 6.863722 -17.521641
v 18.619055 6.863721 -4.922074
v 18.619055 6.863723 -17.521641
v -7.766693 6.863720 -4.922074
v 5.750218 6.863721 -4.922074
v 13.966068 8.029270 -13.590257
v 13.966068 0.063671 -13.590258
v 18.619055 8.090191 -13.590257
v 13.966068 8.090194 -13.590257
v 13.988313 0.063669 -15.981132
v 13.988313 8.029267 -15.981131
v 13.755134 0.063669 -15.981132
v 13.755134 8.029267 -15.981131
v 13.755134 0.063669 -17.532951
v 13.755134 8.029267 -17.532949
v 5.750217 0.063667 -9.251612
v 5.750218 8.029266 -9.251611
v 6.223275 0.063667 -9.251612
v 6.223277 8.029266 -9.251611
vt 7.173574 -0.589408
vt 7.173574 -2.952339
vt 8.142229 -0.589408
vt 8.142229 -2.952339
vt 2.267631 1.988904
vt 5.678564 1.988904
vt 2.267631 4.166548
vt 5.678564 4.166548
vt 0.488419 -1.383362
vt 0.488419 -3.655266
vt 1.457079 -1.383362
vt 1.457079 -3.655266
vt 7.070143 -0.725219
vt 6.101488 -0.725219
vt 7.070143 -3.084952
vt 6.101488 -3.084952
vt 8.630323 -1.124288
vt 8.630323 1.144377
vt 7.661669 -1.124288
vt 7.661669 1.144377
vt 7.661669 3.461936
vt 8.630323 3.461936
vt 2.267631 -0.237580
vt 5.678564 -0.237580
vt 3.168613 -0.858469
vt 3.168613 -3.084952
vt 4.137269 -0.858469
vt 4.137269 -3.084952
vt 1.223455 1.215245
vt 0.254749 1.215245
vt 1.223455 -0.861067
vt 0.254749 -0.861067
vt 1.457079 -5.822604
vt 0.488419 -5.822604
vt 8.925963 4.166548
vt 8.925963 1.988904
vt 1.993052 -0.904074
vt 1.024354 -0.904074
vt 1.993052 -3.084952
vt 1.024354 -3.084952
vt 8.745564 8.523706
vt 8.745564 9.203194
vt 5.334630 8.523706
vt 5.334630 9.203194
vt 7.001743 2.904022
vt 6.033089 2.904022
vt 7.001743 0.723186
vt 6.033089 0.723186
vt -4.831347 -0.970412
vt -4.165500 -0.972021
vt -4.826161 1.156105
vt -4.160314 1.154497
vt 7.093041 0.000514
vt 7.093041 -0.678977
vt 8.061739 0.000514
vt 8.061739 -0.678977
vt 8.004234 -3.101963
vt 8.972889 -3.101963
vt 8.004234 -2.422472
vt 8.972889 -2.422472
vt -2.697400 -0.975564
vt -0.515583 -0.980834
vt -2.692208 1.150953
vt -0.510392 1.145684
vt 8.972889 -0.924319
vt 8.972889 1.302215
vt 8.004234 -0.924319
vt 8.004234 1.302215
vt 8.745564 4.799021
vt 8.745564 7.025500
vt 5.334630 4.799021
vt 5.334630 7.025500
vt 3.065138 -0.858469
vt 2.096484 -0.858469
vt 3.065138 -3.084952
vt 2.096484 -3.084952
vt 2.311132 1.184556
vt 1.342432 1.184556
vt 2.311132 -0.068255
vt 1.342432 -0.068255
vt -4.157154 2.450539
vt -4.822997 2.452147
vt 6.033089 -0.606011
vt 7.001743 -0.606011
vt 3.255803 9.203194
vt 3.255803 8.523706
vt 6.008636 0.064951
vt 6.008636 -0.682212
vt 6.977346 0.064951
vt 6.977346 -0.682212
vt 2.087220 8.523706
vt 2.087220 9.203194
vt 2.311132 -0.815418
vt 1.342432 -0.815418
vt -4.821223 3.180664
vt -4.155375 3.179056
vt 2.426883 0.682735
vt 2.426883 -0.815418
vt 3.395537 0.682735
vt 3.395537 -0.815418
vt 3.255803 7.025500
vt 2.087220 7.025500
vt 5.215237 7.025500
vt -2.692025 1.225377
vt -2.689049 2.446990
vt -2.687269 3.175512
vt 3.839847 -0.773232
vt 4.808546 -0.773232
vt 3.839847 -0.022519
vt 4.808546 -0.022519
vt 8.000494 -2.861313
vt 8.000494 -0.680434
vt 5.820986 -0.328606
vt 2.125253 -0.328606
vt 5.678564 4.348644
vt 2.125253 4.257617
vt 0.630156 -3.655266
vt 0.630156 -1.474431
vt 6.928419 -0.816239
vt 6.928419 -2.993927
vt 9.068340 4.257617
vt 9.068340 1.897884
vt 5.067662 -0.816239
vt 4.240700 -0.816239
vt 5.067662 -2.993927
vt 4.240700 -3.084952
vt 1.982886 1.988904
vt 7.803405 1.144377
vt 7.803405 3.370910
vt 5.171094 -3.084952
vt 5.998013 -2.993927
vt 5.171094 -0.858469
vt 5.998013 -0.767399
vt 5.820986 1.897884
vt 0.630156 -5.731578
vt 8.232298 -0.816418
vt 8.232298 -0.197085
vt 8.177437 -0.816418
vt 8.177437 -0.197085
vt 3.566097 -0.057627
vt 3.511277 -0.064700
vt 3.566097 -0.808351
vt 3.511277 -0.815418
vt 8.341743 -0.197085
vt 8.341743 -0.816418
vt 8.396606 -0.197085
vt 8.396606 -0.816418
vt 3.675541 -0.057627
vt 3.675541 -0.808351
vt 3.730403 -0.064700
vt 3.730403 -0.815418
vt 5.900334 -0.724392
vt 5.900334 0.026326
vt 4.924242 -0.724392
vt 4.924242 0.026326
vt 8.922504 -0.816418
vt 8.922504 -0.197085
vt 8.506051 -0.816418
vt 8.506051 -0.197085
vt 9.090685 -0.816418
vt 9.090685 -0.197085
vt 9.031820 -0.816418
vt 9.031820 -0.197085
vt 9.615624 -0.069304
vt 9.615624 0.550034
vt 9.196125 -0.069304
vt 9.196125 0.550034
vt 2.311132 1.260899
vt 1.342432 1.260899
vn 0.000000 -0.000000 1.000000
vn -0.000000 1.000000 0.000000
vn -0.037379 0.000000 -0.999301
vn 1.000000 -0.000001 0.000000
vn 1.000000 0.000001 0.000000
vn -0.999077 0.000000 -0.042944
vn -0.999116 -0.000000 0.042041
vn 1.000000 0.000000 0.000000
vn 0.039180 0.000000 -0.999232
vn 0.000000 0.000000 -1.000000
vn 0.000000 -1.000000 -0.000001
vn 0.000000 -1.000000 0.000000
vn -1.000000 0.000000 0.000000
vn -1.000000 0.000001 0.000000
vn 0.000000 -1.000000 0.000002
vn 0.000000 -1.000000 0.000001
vn 0.000000 -0.077224 -0.997014
vn 0.000000 -0.153086 0.988213
vn 0.037258 -0.080244 0.996079
vn -0.996575 -0.082688 -0.000000
vn -0.996575 -0.082689 -0.000000
vn 0.986509 -0.163707 -0.000000
vn 0.995384 -0.085904 0.042786
vn 0.995428 -0.085838 -0.041886
vn 0.000000 1.000000 0.000001
vn -0.039053 -0.080386 0.995998
vn 0.977459 0.000000 -0.211126
vn 0.977458 0.000000 -0.211127
vn 0.000001 1.000000 0.000000
vn -0.977456 0.000000 0.211139
vn -0.000001 -1.000000 -0.000000
s off
f 1/1/1 2/2/1 3/3/1
f 3/3/1 2/2/1 4/4/1
f 5/5/2 6/6/2 7/7/2
f 7/7/2 6/6/2 8/8/2
f 9/9/3 10/10/3 11/11/3
f 11/11/3 10/10/3 12/12/3
f 13/13/4 14/14/4 15/15/4
f 15/15/5 14/14/5 16/16/5
f 11/17/6 17/18/6 9/19/6
f 9/19/6 17/18/6 18/20/6
f 18/20/7 17/18/7 3/21/7
f 17/18/7 1/22/7 3/21/7
f 19/23/2 20/24/2 5/5/2
f 5/5/2 20/24/2 6/6/2
f 2/25/8 21/26/8 4/27/8
f 4/27/8 21/26/8 22/28/8
f 22/29/1 21/30/1 13/31/1
f 13/31/1 21/30/1 14/32/1
f 12/12/9 10/10/9 16/33/9
f 16/33/9 10/10/9 15/34/9
f 8/8/2 6/6/2 23/35/2
f 23/35/2 6/6/2 24/36/2
f 25/37/10 26/38/10 27/39/10
f 27/39/10 26/38/10 28/40/10
f 29/41/11 30/42/11 31/43/11
f 31/43/12 30/42/12 32/44/12
f 30/45/1 33/46/1 32/47/1
f 32/47/1 33/46/1 34/48/1
f 33/49/2 35/50/2 34/51/2
f 34/51/2 35/50/2 36/52/2
f 37/53/13 38/54/13 39/55/13
f 39/55/13 38/54/13 40/56/13
f 33/57/8 30/58/8 35/59/8
f 35/59/8 30/58/8 29/60/8
f 41/61/2 25/62/2 42/63/2
f 42/63/2 25/62/2 27/64/2
f 43/65/8 26/66/8 41/67/8
f 41/67/8 26/66/8 25/68/8
f 26/69/12 43/70/12 28/71/12
f 28/71/12 43/70/12 44/72/12
f 27/73/13 28/74/13 42/75/13
s 1
f 42/75/13 28/74/13 44/76/13
f 45/77/10 46/78/10 47/79/10
f 47/79/10 46/78/10 48/80/10
s off
f 36/52/2 49/81/2 34/51/2
f 34/51/2 49/81/2 50/82/2
f 34/48/1 50/83/1 32/47/1
f 32/47/1 50/83/1 51/84/1
f 32/44/12 51/85/12 31/43/12
f 31/43/12 51/85/12 52/86/12
f 50/87/1 40/88/1 51/89/1
f 51/89/1 40/88/1 38/90/1
f 52/86/12 51/85/12 37/91/12
f 37/91/12 51/85/12 38/92/12
f 47/79/10 48/80/10 53/93/10
f 53/93/10 48/80/10 54/94/10
f 50/82/2 49/81/2 40/95/2
f 40/95/2 49/81/2 39/96/2
f 54/97/13 37/98/13 53/99/13
f 53/99/14 37/98/14 39/100/14
f 48/101/12 52/86/12 54/102/12
f 54/102/12 52/86/12 37/91/12
f 31/43/12 52/86/12 44/72/12
s 1
f 44/72/15 52/86/12 46/103/16
f 52/86/12 48/101/12 46/103/16
s off
f 43/70/12 29/41/12 44/72/12
f 44/72/12 29/41/12 31/43/12
f 35/59/8 29/60/8 41/67/8
f 41/67/8 29/60/8 43/65/8
f 36/52/2 35/50/2 42/63/2
f 42/63/2 35/50/2 41/61/2
s 1
f 42/63/2 45/104/2 36/52/2
f 45/104/2 47/105/2 36/52/2
s off
f 36/52/2 47/105/2 49/81/2
f 39/96/2 49/81/2 53/106/2
f 53/106/2 49/81/2 47/105/2
f 55/107/1 56/108/1 57/109/1
f 57/109/1 56/108/1 58/110/1
f 60/111/17 1/1/17 59/112/17
f 1/1/17 60/111/17 2/2/17
f 20/24/2 19/23/2 4/113/2
f 4/113/2 19/23/2 3/114/2
f 8/8/2 10/115/2 7/7/2
f 7/7/2 10/115/2 9/116/2
f 61/117/18 62/118/18 12/12/18
f 12/12/19 62/118/19 11/11/19
f 63/119/20 64/120/20 14/14/20
f 14/14/21 64/120/21 16/16/21
f 23/35/2 24/36/2 15/121/2
f 15/121/2 24/36/2 13/122/2
f 65/123/22 17/124/22 62/125/22
f 62/125/23 17/124/23 11/126/23
f 5/5/2 7/7/2 18/127/2
f 18/127/2 7/7/2 9/116/2
f 65/128/22 59/129/22 17/18/22
f 59/129/24 1/22/24 17/18/24
f 5/5/2 18/127/2 19/23/2
f 19/23/2 18/127/2 3/114/2
f 66/130/20 21/131/20 60/132/20
f 60/132/21 21/131/21 2/133/21
f 6/6/2 20/24/2 22/134/2
f 22/134/2 20/24/2 4/113/2
f 66/130/17 63/130/17 21/131/17
f 21/131/17 63/130/17 14/131/17
f 6/6/2 22/134/2 24/36/2
f 24/36/2 22/134/2 13/122/2
f 8/8/2 23/35/2 10/115/2
f 10/115/25 23/35/25 15/121/25
f 61/117/18 12/12/18 64/135/18
f 64/135/26 12/12/26 16/33/26
f 39/136/27 37/137/27 55/138/27
f 55/138/28 37/137/28 56/139/28
f 67/140/29 58/141/29 37/142/29
f 37/142/29 58/141/29 56/143/29
f 67/144/30 68/145/30 58/146/30
f 58/146/30 68/145/30 57/147/30
f 68/148/31 39/149/31 57/150/31
f 57/150/31 39/149/31 55/151/31
f 39/152/10 68/153/10 69/154/10
f 69/154/10 68/153/10 70/155/10
f 50/156/8 51/157/8 71/158/8
f 71/158/8 51/157/8 72/159/8
f 71/160/1 72/161/1 73/162/1
f 73/162/1 72/161/1 74/163/1
f 73/164/13 74/165/13 75/166/13
f 75/166/13 74/165/13 76/167/13
s 1
f 77/168/10 78/169/10 79/77/10
f 79/77/10 78/169/10 80/78/10
f 42/168/13 44/169/13 77/168/13
f 77/168/13 44/169/13 78/169/13
f 44/169/2 46/78/2 78/169/2
f 78/169/2 46/78/2 80/78/2
f 46/78/8 45/77/8 80/78/8
f 80/78/8 45/77/8 79/77/8
f 45/77/12 42/168/12 79/77/12
f 79/77/12 42/168/12 77/168/12
s off
f 81/1/1 82/2/1 83/3/1
f 83/3/1 82/2/1 84/4/1
f 85/5/2 86/6/2 87/7/2
f 87/7/2 86/6/2 88/8/2
f 89/9/3 90/10/3 91/11/3
f 91/11/3 90/10/3 92/12/3
f 93/13/4 94/14/4 95/15/4
f 95/15/5 94/14/5 96/16/5
f 91/17/6 97/18/6 89/19/6
f 89/19/6 97/18/6 98/20/6
f 98/20/7 97/18/7 83/21/7
f 83/21/7 97/18/7 81/22/7
f 99/23/2 100/24/2 85/5/2
f 85/5/2 100/24/2 86/6/2
f 82/25/8 101/26/8 84/27/8
f 84/27/8 101/26/8 102/28/8
f 102/29/1 101/30/1 93/31/1
f 93/31/1 101/30/1 94/32/1
f 92/12/9 90/10/9 96/33/9
f 96/33/9 90/10/9 95/34/9
f 88/8/2 86/6/2 103/35/2
f 103/35/2 86/6/2 104/36/2
f 105/37/10 106/38/10 107/39/10
f 107/39/10 106/38/10 108/40/10
f 109/41/11 110/42/11 111/43/11
f 111/43/12 110/42/12 112/44/12
f 110/45/1 113/46/1 112/47/1
f 112/47/1 113/46/1 114/48/1
f 113/49/2 115/50/2 114/51/2
f 114/51/2 115/50/2 116/52/2
f 117/53/13 118/54/13 119/55/13
f 119/55/13 118/54/13 120/56/13
f 113/57/8 110/58/8 115/59/8
f 115/59/8 110/58/8 109/60/8
f 121/61/2 105/62/2 122/63/2
f 122/63/2 105/62/2 107/64/2
f 123/65/8 106/66/8 121/67/8
f 121/67/8 106/66/8 105/68/8
f 106/69/12 123/70/12 108/71/12
f 108/71/12 123/70/12 124/72/12
f 107/73/13 108/74/13 122/75/13
s 1
f 122/75/13 108/74/13 124/76/13
f 125/77/10 126/78/10 127/79/10
f 127/79/10 126/78/10 128/80/10
s off
f 116/52/2 129/81/2 114/51/2
f 114/51/2 129/81/2 130/82/2
f 114/48/1 130/83/1 112/47/1
f 112/47/1 130/83/1 131/84/1
f 112/44/12 131/85/12 111/43/12
f 111/43/12 131/85/12 132/86/12
f 130/87/1 120/88/1 131/89/1
f 131/89/1 120/88/1 118/90/1
f 132/86/12 131/85/12 117/91/12
f 117/91/12 131/85/12 118/92/12
f 127/79/10 128/80/10 133/93/10
f 133/93/10 128/80/10 134/94/10
f 130/82/2 129/81/2 120/95/2
f 120/95/2 129/81/2 119/96/2
f 134/97/13 117/98/13 133/99/13
f 133/99/14 117/98/14 119/100/14
f 128/101/12 132/86/12 134/102/12
f 134/102/12 132/86/12 117/91/12
f 111/43/12 132/86/12 124/72/12
s 1
f 124/72/15 132/86/12 126/103/16
f 132/86/12 128/101/12 126/103/16
s off
f 123/70/12 109/41/12 124/72/12
f 124/72/12 109/41/12 111/43/12
f 115/59/8 109/60/8 121/67/8
f 121/67/8 109/60/8 123/65/8
f 116/52/2 115/50/2 122/63/2
f 122/63/2 115/50/2 121/61/2
s 1
f 122/63/2 125/104/2 116/52/2
f 125/104/2 127/105/2 116/52/2
s off
f 116/52/2 127/105/2 129/81/2
f 119/96/2 129/81/2 133/106/2
f 133/106/2 129/81/2 127/105/2
f 135/107/1 136/108/1 137/109/1
f 137/109/1 136/108/1 138/110/1
f 139/112/17 140/111/17 81/1/17
f 81/1/17 140/111/17 82/2/17
f 100/24/2 99/23/2 84/113/2
f 84/113/2 99/23/2 83/114/2
f 88/8/2 90/115/2 87/7/2
f 87/7/2 90/115/2 89/116/2
f 141/117/18 142/118/18 92/12/18
f 92/12/19 142/118/19 91/11/19
f 143/119/20 144/120/20 94/14/20
f 94/14/21 144/120/21 96/16/21
f 103/35/2 104/36/2 95/121/2
f 95/121/2 104/36/2 93/122/2
f 145/123/22 97/124/22 142/125/22
f 142/125/23 97/124/23 91/126/23
f 85/5/2 87/7/2 98/127/2
f 98/127/2 87/7/2 89/116/2
f 145/128/22 139/129/22 97/18/22
f 97/18/24 139/129/24 81/22/24
f 85/5/2 98/127/2 99/23/2
f 99/23/2 98/127/2 83/114/2
f 146/130/20 101/131/20 140/132/20
f 140/132/21 101/131/21 82/133/21
f 86/6/2 100/24/2 102/134/2
f 102/134/2 100/24/2 84/113/2
f 146/130/17 143/130/17 101/131/17
f 101/131/17 143/130/17 94/131/17
f 86/6/2 102/134/2 104/36/2
f 104/36/2 102/134/2 93/122/2
f 88/8/2 103/35/2 90/115/2
f 90/115/25 103/35/25 95/121/25
f 141/117/18 92/12/18 144/135/18
f 144/135/26 92/12/26 96/33/26
f 119/136/27 117/137/27 135/138/27
f 135/138/28 117/137/28 136/139/28
f 147/140/29 138/141/29 117/142/29
f 117/142/29 138/141/29 136/143/29
f 147/144/30 148/145/30 138/146/30
f 138/146/30 148/145/30 137/147/30
f 148/148/31 119/149/31 137/150/31
f 137/150/31 119/149/31 135/151/31
f 119/152/10 148/153/10 149/154/10
f 149/154/10 148/153/10 150/155/10
f 130/156/8 131/157/8 151/158/8
f 151/158/8 131/157/8 152/159/8
f 151/160/1 152/161/1 153/162/1
f 153/162/1 152/161/1 154/163/1
f 153/164/13 154/165/13 155/166/13
f 155/166/13 154/165/13 156/167/13
s 1
f 157/168/10 158/169/10 159/77/10
f 159/77/10 158/169/10 160/78/10
f 122/168/13 124/169/13 157/168/13
f 157/168/13 124/169/13 158/169/13
f 124/169/2 126/78/2 158/169/2
f 158/169/2 126/78/2 160/78/2
f 126/78/8 125/77/8 160/78/8
f 160/78/8 125/77/8 159/77/8
f 125/77/12 122/168/12 159/77/12
f 159/77/12 122/168/12 157/168/12
