# Blender v2.69 (sub 0) OBJ File: 'table.blend'
# www.blender.org
mtllib table.mtl
o leg1_pasted__pasted__group_pasted__group1_group2
v 3.936389 -0.000000 1.980969
v 4.894374 -0.000000 1.980969
v 3.936389 2.013853 1.980969
v 4.894374 2.013853 1.980969
v 3.936389 2.013853 1.051432
v 4.894374 2.013853 1.051432
v 3.936389 -0.000000 1.051432
v 4.894374 -0.000000 1.051432
v 3.936389 -0.000000 1.980969
v 4.894374 -0.000000 1.980969
v 3.936389 2.013853 1.980969
v 4.894374 2.013853 1.980969
v 3.936389 2.013853 1.051432
v 4.894374 2.013853 1.051432
v 3.936389 -0.000000 1.051432
v 4.894374 -0.000000 1.051432
vt 0.181958 -0.772166
vt 0.818042 -0.772166
vt 0.181958 -0.136083
vt 0.818042 -0.136083
vt 0.181958 0.500000
vt 0.818042 0.500000
vt 0.181958 1.136083
vt 0.818042 1.136083
vt 0.181958 1.772166
vt 0.818042 1.772166
vt 1.454125 -0.772166
vt 1.454125 -0.136083
vt -0.454125 -0.772166
vt -0.454125 -0.136083
vn -0.577349 -0.577349 0.577349
vn 0.577349 -0.577349 0.577349
vn -0.577349 0.577349 0.577349
vn 0.577349 0.577349 0.577349
vn -0.577349 0.577349 -0.577349
vn 0.577349 0.577349 -0.577349
vn -0.577349 -0.577349 -0.577349
vn 0.577349 -0.577349 -0.577349
usemtl None
s 1
f 1/1/1 2/2/2 3/3/3
f 3/3/3 2/2/2 4/4/4
f 3/3/3 4/4/4 5/5/5
f 5/5/5 4/4/4 6/6/6
f 5/5/5 6/6/6 7/7/7
f 7/7/7 6/6/6 8/8/8
f 8/8/8 1/9/1 7/7/7
f 1/9/1 8/8/8 2/10/2
f 2/2/2 8/11/8 4/4/4
f 4/4/4 8/11/8 6/12/6
f 7/13/7 1/1/1 5/14/5
f 5/14/5 1/1/1 3/3/3
f 9/1/1 10/2/2 11/3/3
f 11/3/3 10/2/2 12/4/4
f 11/3/3 12/4/4 13/5/5
f 13/5/5 12/4/4 14/6/6
f 13/5/5 14/6/6 15/7/7
f 15/7/7 14/6/6 16/8/8
f 15/7/7 16/8/8 9/9/1
f 9/9/1 16/8/8 10/10/2
f 10/2/2 16/11/8 12/4/4
f 12/4/4 16/11/8 14/12/6
f 15/13/7 9/1/1 13/14/5
f 13/14/5 9/1/1 11/3/3
o leg3_group
v -2.957693 0.000000 -0.157708
v -1.999709 0.000000 -0.157708
v -2.957693 2.013853 -0.157708
v -1.999709 2.013853 -0.157708
v -2.957693 2.013853 -1.087244
v -1.999709 2.013853 -1.087244
v -2.957693 0.000000 -1.087244
v -1.999709 0.000000 -1.087244
v -2.957693 0.000000 -0.157708
v -1.999709 0.000000 -0.157708
v -2.957693 2.013853 -0.157708
v -1.999709 2.013853 -0.157708
v -2.957693 2.013853 -1.087244
v -1.999709 2.013853 -1.087244
v -2.957693 0.000000 -1.087244
v -1.999709 0.000000 -1.087244
vt 0.210721 -0.657115
vt 0.789279 -0.657115
vt 0.210721 -0.078558
vt 0.789279 -0.078558
vt 0.210721 0.500000
vt 0.789279 0.500000
vt 0.210721 1.078558
vt 0.789279 1.078558
vt 0.210721 1.657115
vt 0.789279 1.657115
vt 1.367837 -0.657115
vt 1.367837 -0.078558
vt -0.367837 -0.657115
vt -0.367837 -0.078558
vn -0.577349 -0.577349 0.577349
vn 0.577349 -0.577349 0.577349
vn -0.577349 0.577349 0.577349
vn 0.577349 0.577349 0.577349
vn -0.577349 0.577349 -0.577349
vn 0.577349 0.577349 -0.577349
vn -0.577349 -0.577349 -0.577349
vn 0.577349 -0.577349 -0.577349
usemtl None
s 1
f 17/15/9 18/16/10 19/17/11
f 19/17/11 18/16/10 20/18/12
f 19/17/11 20/18/12 21/19/13
f 21/19/13 20/18/12 22/20/14
f 21/19/13 22/20/14 23/21/15
f 23/21/15 22/20/14 24/22/16
f 24/22/16 17/23/9 23/21/15
f 17/23/9 24/22/16 18/24/10
f 18/16/10 24/25/16 20/18/12
f 20/18/12 24/25/16 22/26/14
f 23/27/15 17/15/9 21/28/13
f 21/28/13 17/15/9 19/17/11
f 25/15/9 26/16/10 27/17/11
f 27/17/11 26/16/10 28/18/12
f 27/17/11 28/18/12 29/19/13
f 29/19/13 28/18/12 30/20/14
f 29/19/13 30/20/14 31/21/15
f 31/21/15 30/20/14 32/22/16
f 31/21/15 32/22/16 25/23/9
f 25/23/9 32/22/16 26/24/10
f 26/16/10 32/25/16 28/18/12
f 28/18/12 32/25/16 30/26/14
f 31/27/15 25/15/9 29/28/13
f 29/28/13 25/15/9 27/17/11
o leg4
v -2.957693 -0.000000 1.956530
v -1.999709 -0.000000 1.956530
v -2.957693 2.013853 1.956530
v -1.999709 2.013853 1.956530
v -2.957693 2.013853 1.026993
v -1.999709 2.013853 1.026993
v -2.957693 -0.000000 1.026993
v -1.999709 -0.000000 1.026993
v -2.957693 -0.000000 1.956530
v -1.999709 -0.000000 1.956530
v -2.957693 2.013853 1.956530
v -1.999709 2.013853 1.956530
v -2.957693 2.013853 1.026993
v -1.999709 2.013853 1.026993
v -2.957693 -0.000000 1.026993
v -1.999709 -0.000000 1.026993
vt 0.188498 -0.746009
vt 0.811502 -0.746009
vt 0.188498 -0.123005
vt 0.811502 -0.123005
vt 0.188498 0.500000
vt 0.811502 0.500000
vt 0.188498 1.123005
vt 0.811502 1.123005
vt 0.188498 1.746009
vt 0.811502 1.746009
vt 1.434507 -0.746009
vt 1.434507 -0.123005
vt -0.434507 -0.746009
vt -0.434507 -0.123005
vn -0.577349 -0.577349 0.577349
vn 0.577349 -0.577349 0.577349
vn -0.577349 0.577349 0.577349
vn 0.577349 0.577349 0.577349
vn -0.577349 0.577349 -0.577349
vn 0.577349 0.577349 -0.577349
vn -0.577349 -0.577349 -0.577349
vn 0.577349 -0.577349 -0.577349
usemtl None
s 1
f 33/29/17 34/30/18 35/31/19
f 35/31/19 34/30/18 36/32/20
f 35/31/19 36/32/20 37/33/21
f 37/33/21 36/32/20 38/34/22
f 37/33/21 38/34/22 39/35/23
f 39/35/23 38/34/22 40/36/24
f 40/36/24 33/37/17 39/35/23
f 33/37/17 40/36/24 34/38/18
f 34/30/18 40/39/24 36/32/20
f 36/32/20 40/39/24 38/40/22
f 39/41/23 33/29/17 37/42/21
f 37/42/21 33/29/17 35/31/19
f 41/29/17 42/30/18 43/31/19
f 43/31/19 42/30/18 44/32/20
f 43/31/19 44/32/20 45/33/21
f 45/33/21 44/32/20 46/34/22
f 45/33/21 46/34/22 47/35/23
f 47/35/23 46/34/22 48/36/24
f 47/35/23 48/36/24 41/37/17
f 41/37/17 48/36/24 42/38/18
f 42/30/18 48/39/24 44/32/20
f 44/32/20 48/39/24 46/40/22
f 47/41/23 41/29/17 45/42/21
f 45/42/21 41/29/17 43/31/19
o leg2_pasted__group_group1
v 3.936389 0.000000 -0.157708
v 4.894374 0.000000 -0.157708
v 3.936389 2.013853 -0.157708
v 4.894374 2.013853 -0.157708
v 3.936389 2.013853 -1.087244
v 4.894374 2.013853 -1.087244
v 3.936389 0.000000 -1.087244
v 4.894374 0.000000 -1.087244
v 3.936389 0.000000 -0.157708
v 4.894374 0.000000 -0.157708
v 3.936389 2.013853 -0.157708
v 4.894374 2.013853 -0.157708
v 3.936389 2.013853 -1.087244
v 4.894374 2.013853 -1.087244
v 3.936389 0.000000 -1.087244
v 4.894374 0.000000 -1.087244
vt 0.188677 -0.745293
vt 0.811323 -0.745293
vt 0.188677 -0.122647
vt 0.811323 -0.122647
vt 0.188677 0.500000
vt 0.811323 0.500000
vt 0.188677 1.122647
vt 0.811323 1.122647
vt 0.188677 1.745293
vt 0.811323 1.745293
vt 1.433970 -0.745293
vt 1.433970 -0.122647
vt -0.433970 -0.745293
vt -0.433970 -0.122647
vn -0.577349 -0.577349 0.577349
vn 0.577349 -0.577349 0.577349
vn -0.577349 0.577349 0.577349
vn 0.577349 0.577349 0.577349
vn -0.577349 0.577349 -0.577349
vn 0.577349 0.577349 -0.577349
vn -0.577349 -0.577349 -0.577349
vn 0.577349 -0.577349 -0.577349
usemtl None
s 1
f 49/43/25 50/44/26 51/45/27
f 51/45/27 50/44/26 52/46/28
f 51/45/27 52/46/28 53/47/29
f 53/47/29 52/46/28 54/48/30
f 53/47/29 54/48/30 55/49/31
f 55/49/31 54/48/30 56/50/32
f 56/50/32 49/51/25 55/49/31
f 49/51/25 56/50/32 50/52/26
f 50/44/26 56/53/32 52/46/28
f 52/46/28 56/53/32 54/54/30
f 55/55/31 49/43/25 53/56/29
f 53/56/29 49/43/25 51/45/27
f 57/43/25 58/44/26 59/45/27
f 59/45/27 58/44/26 60/46/28
f 59/45/27 60/46/28 61/47/29
f 61/47/29 60/46/28 62/48/30
f 61/47/29 62/48/30 63/49/31
f 63/49/31 62/48/30 64/50/32
f 63/49/31 64/50/32 57/51/25
f 57/51/25 64/50/32 58/52/26
f 58/44/26 64/53/32 60/46/28
f 60/46/28 64/53/32 62/54/30
f 63/55/31 57/43/25 61/56/29
f 61/56/29 57/43/25 59/45/27
o top1
v -3.960211 2.004807 2.644934
v 6.045431 2.004807 2.644934
v -3.960211 2.332462 2.644934
v 6.045431 2.332462 2.644934
v -3.960211 2.332462 -1.928705
v 6.045431 2.332462 -1.928705
v -3.960211 2.004809 -1.928705
v 6.045431 2.004809 -1.928705
v -3.960211 2.004807 2.644934
v 6.045431 2.004807 2.644934
v -3.960211 2.332462 2.644934
v 6.045431 2.332462 2.644934
v -3.960211 2.332462 -1.928705
v 6.045431 2.332462 -1.928705
v -3.960211 2.004809 -1.928705
v 6.045431 2.004809 -1.928705
vt -1.331363 -0.850669
vt 2.302074 -0.838169
vt -1.331363 -0.777424
vt 2.306450 -0.749924
vt -1.338363 0.284389
vt 2.302609 0.284389
vt -1.331363 0.422779
vt 2.309609 0.422779
vt -1.331363 1.381980
vt 2.309609 1.381980
vt 3.315616 -0.844418
vt 3.315838 -0.765419
vt -2.388350 -0.831137
vt -2.374507 -0.757815
vt 2.306449 -0.844419
vt 2.306449 -0.752424
vt -1.331363 0.276597
vt 2.309609 0.276597
vt -1.331363 1.394187
vt 2.309609 1.394187
vt 3.311463 -0.759169
vt -2.386226 -0.831137
vt -2.372384 -0.757815
vn -0.577349 -0.577349 0.577349
vn 0.577349 -0.577349 0.577349
vn -0.577349 0.577349 0.577349
vn 0.577349 0.577349 0.577349
vn -0.577349 0.577349 -0.577349
vn 0.577349 0.577349 -0.577349
vn -0.577349 -0.577349 -0.577349
vn 0.577349 -0.577349 -0.577349
usemtl None_hatching1.png
s 1
f 65/57/33 66/58/34 67/59/35
f 67/59/35 66/58/34 68/60/36
f 67/59/35 68/60/36 69/61/37
f 69/61/37 68/60/36 70/62/38
f 69/61/37 70/62/38 71/63/39
f 71/63/39 70/62/38 72/64/40
f 72/64/40 65/65/33 71/63/39
f 65/65/33 72/64/40 66/66/34
f 66/58/34 72/67/40 68/60/36
f 68/60/36 72/67/40 70/68/38
f 71/69/39 65/57/33 69/70/37
f 69/70/37 65/57/33 67/59/35
f 73/57/33 74/71/34 75/59/35
f 75/59/35 74/71/34 76/72/36
f 75/59/35 76/72/36 77/73/37
f 77/73/37 76/72/36 78/74/38
f 77/73/37 78/74/38 79/63/39
f 79/63/39 78/74/38 80/64/40
f 79/63/39 80/64/40 73/75/33
f 73/75/33 80/64/40 74/76/34
f 74/71/34 80/67/40 76/72/36
f 76/72/36 80/67/40 78/77/38
f 79/78/39 73/57/33 77/79/37
f 77/79/37 73/57/33 75/59/35
